<?xml version="1.0" encoding="UTF-8"?>
<svg width="151px" height="36px" viewBox="0 0 151 36" version="1.1" xmlns="http://www.w3.org/2000/svg" xmlns:xlink="http://www.w3.org/1999/xlink">
    <!-- Generator: Sketch 46.2 (44496) - http://www.bohemiancoding.com/sketch -->
    <title>logo</title>
    <desc>Created with Sketch.</desc>
    <defs></defs>
    <g id="Page-1" stroke="none" stroke-width="1" fill="none" fill-rule="evenodd">
        <g fill="#233068">
            <polygon id="Fill-1" points="30.7688418 30.7689 18.1246577 30.7689 6.90708557 19.3974 4.02531443 22.28565 16.4148269 34.84515 32.4839313 34.84515 44.8787025 22.2309 41.9969313 19.3419"></polygon>
            <polygon id="Fill-2" points="16.4127985 1.500225 -0.000375621891 18.203475 2.84082836 21.084975 6.0486393 17.870475 18.1263856 5.576475 30.7713209 5.576475 46.0606343 21.027225 48.8965796 18.141225 32.4826542 1.500225"></polygon>
            <path d="M28.1887701,16.72965 C28.5809194,16.72965 28.9475264,16.62015 29.2615463,16.43265 C29.4508597,16.9494 29.5590388,17.5059 29.5590388,18.08865 C29.5590388,20.76015 27.390198,22.9254 24.7142677,22.9254 C22.0383373,22.9254 19.8694965,20.76015 19.8694965,18.08865 C19.8694965,15.41715 22.0383373,13.2519 24.7142677,13.2519 C25.3092527,13.2519 25.877193,13.3644 26.4030637,13.56015 C26.2107453,13.8759 26.0980587,14.24565 26.0980587,14.6424 C26.0980587,15.79515 27.0341085,16.72965 28.1887701,16.72965 Z" id="Fill-3"></path>
            <path d="M63.8031343,19.239675 C63.8031343,22.504425 66.5083632,25.087425 69.731199,25.087425 C72.9547861,25.087425 75.5886468,22.504425 75.5886468,19.239675 C75.5886468,15.974925 72.9547861,13.438425 69.731199,13.438425 C66.4843234,13.438425 63.8031343,15.974925 63.8031343,19.239675 M78.4358607,19.239675 C78.4358607,23.936925 74.6240498,27.576675 69.7071592,27.576675 C64.7910199,27.576675 60.9799602,23.936925 60.9799602,19.239675 C60.9799602,14.518425 64.7910199,10.948425 69.7071592,10.948425 C74.6240498,10.948425 78.4358607,14.541675 78.4358607,19.239675" id="Fill-5"></path>
            <polygon id="Fill-7" points="85.3529378 11.01975 89.375097 16.7265 93.421296 11.01975 96.6689229 11.01975 91.1397687 18.9105 97.1384502 27.45975 93.8209577 27.45975 89.375097 21.25875 84.9532761 27.45975 81.7064005 27.45975 87.7050821 19.02825 82.130102 11.01975"></polygon>
            <polygon id="Fill-9" points="101.915234 27.459975 104.69108 27.459975 104.69108 11.019975 101.915234 11.019975"></polygon>
            <path d="M121.558681,16.703325 C121.558681,14.541825 120.123054,13.509075 117.582348,13.509075 L113.912522,13.509075 L113.912522,20.014575 L117.582348,20.014575 C120.123054,20.014575 121.558681,18.934575 121.558681,16.703325 M124.216582,16.632075 C124.216582,20.343825 121.840398,22.503825 117.700293,22.503825 L113.912522,22.503825 L113.912522,27.459825 L111.136676,27.459825 L111.136676,11.019825 L117.700293,11.019825 C121.840398,11.019825 124.216582,13.062825 124.216582,16.632075" id="Fill-11"></path>
            <polygon id="Fill-12" points="129.08697 27.459975 131.862816 27.459975 131.862816 11.019975 129.08697 11.019975"></polygon>
            <polygon id="Fill-13" points="149.55348 11.01975 149.55348 13.509 144.330833 13.509 144.330833 27.45975 141.555739 27.45975 141.555739 13.509 136.356381 13.509 136.356381 11.01975"></polygon>
        </g>
    </g>
</svg>